<?xml version="1.0" encoding="UTF-8"?>
<svg width="270px" height="270px" viewBox="0 0 270 270" version="1.1" xmlns="http://www.w3.org/2000/svg" xmlns:xlink="http://www.w3.org/1999/xlink">
    <!-- Generator: Sketch 52.4 (67378) - http://www.bohemiancoding.com/sketch -->
    <title>暂无内容</title>
    <desc>Created with Sketch.</desc>
    <g id="加载&amp;空白" stroke="none" stroke-width="1" fill="none" fill-rule="evenodd">
        <g id="搜索空白页面设计" transform="translate(-9735.000000, -3243.000000)">
            <g id="Group-21" transform="translate(8257.000000, 2677.000000)">
                <g id="empty" transform="translate(1478.000000, 566.000000)">
                    <g id="Group-2-Copy" transform="translate(16.000000, 15.000000)"></g>
                    <g id="Group" transform="translate(48.000000, 40.000000)" stroke="#E9E9E9" stroke-width="20">
                        <path d="M9.99966475,170 C9.99966475,175.522847 14.4768173,180 19.9996648,180 L156,180 C161.522847,180 166,175.522847 166,169.999989 L166.000168,19.9999162 C166.000121,14.4770687 161.522931,9.99995374 156.000099,10 L48.5087918,10.0010678 L9.99966475,50.0277417 L9.99966475,170 Z" id="Combined-Shape" fill-rule="nonzero" transform="translate(87.999832, 95.000000) scale(-1, 1) translate(-87.999832, -95.000000) "></path>
                        <path d="M117,15 L117,49.1404159 C117,54.1109786 121.029437,58.1404159 126,58.1404159 L157.548439,58.1404159" id="Path-2-Copy"></path>
                    </g>
                </g>
            </g>
        </g>
    </g>
</svg>