<?xml version="1.0" encoding="UTF-8"?>
<svg width="270px" height="270px" viewBox="0 0 270 270" version="1.1" xmlns="http://www.w3.org/2000/svg" xmlns:xlink="http://www.w3.org/1999/xlink">
    <!-- Generator: Sketch 52.4 (67378) - http://www.bohemiancoding.com/sketch -->
    <title>wifi</title>
    <desc>Created with Sketch.</desc>
    <g id="加载&amp;空白" stroke="none" stroke-width="1" fill="none" fill-rule="evenodd">
        <g id="搜索空白页面设计" transform="translate(-8520.000000, -3242.000000)">
            <g id="Group-21" transform="translate(8257.000000, 2677.000000)">
                <g id="wifi" transform="translate(263.000000, 565.000000)">
                    <g id="Group-2-Copy" transform="translate(16.000000, 16.000000)">
                        <g id="Group" transform="translate(24.727273, 52.363636)">
                            <path d="M159.639955,70.3479245 C143.18199,53.8467271 120.419738,43.6363636 95.2727273,43.6363636 C70.1529953,43.6363636 47.4128505,53.8245874 30.9590808,70.2942468" id="Oval" stroke="#E9E9E9" stroke-width="22" stroke-linecap="round"></path>
                            <path d="M128.767306,101.186437 C120.207329,92.5918932 108.361207,87.2727273 95.2727273,87.2727273 C82.1941129,87.2727273 70.3559842,92.5838776 61.7975107,101.167009" id="Oval-Copy-2" stroke="#E9E9E9" stroke-width="22" stroke-linecap="round"></path>
                            <path d="M190.506344,39.5031599 C166.150889,15.0989838 132.475086,0 95.2727273,0 C58.1190259,0 24.4826623,15.059513 0.134723987,39.4074513" id="Oval-Copy" stroke="#E9E9E9" stroke-width="22" stroke-linecap="round"></path>
                            <path d="M96,147 C88.2680135,147 82,140.731986 82,133 C82,125.268014 88.2680135,119 96,119 C103.731986,119 110,125.268014 110,133 C110,140.731986 103.731986,147 96,147 Z" id="Oval-Copy-3" fill="#E9E9E9" fill-rule="nonzero"></path>
                        </g>
                    </g>
                </g>
            </g>
        </g>
    </g>
</svg>