<?xml version="1.0" encoding="UTF-8"?>
<svg width="270px" height="270px" viewBox="0 0 270 270" version="1.1" xmlns="http://www.w3.org/2000/svg" xmlns:xlink="http://www.w3.org/1999/xlink">
    <!-- Generator: Sketch 52.4 (67378) - http://www.bohemiancoding.com/sketch -->
    <title>暂无评论</title>
    <desc>Created with Sketch.</desc>
    <g id="加载&amp;空白" stroke="none" stroke-width="1" fill="none" fill-rule="evenodd">
        <g id="搜索空白页面设计" transform="translate(-9186.000000, -3250.000000)">
            <g id="Group-21" transform="translate(8257.000000, 2677.000000)">
                <g id="评论" transform="translate(929.000000, 573.000000)">
                    <g id="Group-2-Copy" transform="translate(16.000000, 16.000000)"></g>
                    <g id="Group-42" transform="translate(46.000000, 54.000000)">
                        <path d="M91.4285714,143.333333 L53.3333333,170 L53.3333333,143.333333 L21,143.333333 C9.40202025,143.333333 8.16870452e-15,133.931313 -3.55271368e-15,122.333333 L-3.55271368e-15,21 C-4.97305656e-15,9.40202025 9.40202025,2.13051432e-15 21,0 L159,0 C170.59798,-2.13051432e-15 180,9.40202025 180,21 L180,122.333333 C180,133.931313 170.59798,143.333333 159,143.333333 L91.4285714,143.333333 Z" id="Combined-Shape" stroke="#E9E9E9" stroke-width="20" stroke-linecap="round" stroke-linejoin="round"></path>
                        <circle id="Oval-34" fill="#E9E9E9" cx="44" cy="72" r="12"></circle>
                        <circle id="Oval-34-Copy" fill="#E9E9E9" cx="90" cy="72" r="12"></circle>
                        <circle id="Oval-34-Copy-2" fill="#E9E9E9" cx="136" cy="72" r="12"></circle>
                    </g>
                </g>
            </g>
        </g>
    </g>
</svg>