<?xml version="1.0" encoding="UTF-8"?>
<svg width="29px" height="29px" viewBox="0 0 29 29" version="1.1" xmlns="http://www.w3.org/2000/svg" xmlns:xlink="http://www.w3.org/1999/xlink">
    <!-- Generator: Sketch 52.4 (67378) - http://www.bohemiancoding.com/sketch -->
    <title>画板</title>
    <desc>Created with Sketch.</desc>
    <g id="最终定稿" stroke="none" stroke-width="1" fill="none" fill-rule="evenodd">
        <g id="画板" transform="translate(-95.000000, -86.000000)" fill="#DDDDDD" fill-rule="nonzero">
            <g id="分组-5" transform="translate(95.000000, 89.000000)">
                <path d="M2,17.0375661 L8.58291245,10.4546537 C9.75448532,9.2830808 11.6539803,9.2830808 12.8255531,10.4546537 L16.5375661,14.1666667 L17.5829124,13.1213203 C18.7544853,11.9497475 20.6539803,11.9497475 21.8255531,13.1213203 L27,18.2957672 L27,3 C27,2.44771525 26.5522847,2 26,2 L3,2 C2.44771525,2 2,2.44771525 2,3 L2,17.0375661 Z M3,0 L26,0 C27.6568542,-3.04359188e-16 29,1.34314575 29,3 L29,20 C29,21.6568542 27.6568542,23 26,23 L3,23 C1.34314575,23 4.35408654e-13,21.6568542 4.35207426e-13,20 L1.1290413e-12,3 C1.12886523e-12,1.34314575 1.34314575,3.04359188e-16 3,0 Z M21.3333333,9.66666667 C19.6764791,9.66666667 18.3333333,8.32352092 18.3333333,6.66666667 C18.3333333,5.00981242 19.6764791,3.66666667 21.3333333,3.66666667 C22.9901876,3.66666667 24.3333333,5.00981242 24.3333333,6.66666667 C24.3333333,8.32352092 22.9901876,9.66666667 21.3333333,9.66666667 Z" id="合并形状"></path>
            </g>
        </g>
    </g>
</svg>