<svg width="67" height="74" viewBox="0 0 67 74" xmlns="http://www.w3.org/2000/svg"><title>Group 27</title><g fill="#333" fill-rule="nonzero"><path d="M16.622 73.174c-6.973 0-12.609-5.746-12.609-12.816S9.649 47.54 16.622 47.54s12.609 5.747 12.609 12.817-5.636 12.816-12.609 12.816zm0-4c4.746 0 8.609-3.938 8.609-8.816s-3.863-8.817-8.609-8.817-8.609 3.94-8.609 8.817c0 4.878 3.863 8.816 8.609 8.816zM50.885 73.174c-6.972 0-12.609-5.746-12.609-12.816s5.637-12.817 12.61-12.817c6.972 0 12.608 5.747 12.608 12.817s-5.636 12.816-12.609 12.816zm0-4c4.746 0 8.61-3.938 8.61-8.816s-3.864-8.817-8.61-8.817c-4.746 0-8.609 3.94-8.609 8.817 0 4.878 3.863 8.816 8.61 8.816z"/><g><path d="M29.075 55.122a2 2 0 0 1-3.305-2.253l22.697-33.298a2 2 0 1 1 3.305 2.253L29.075 55.122z"/><path d="M15.99 21.723a2 2 0 1 1 3.288-2.278L42.23 52.567a2 2 0 1 1-3.288 2.278L15.99 21.723z"/></g><path d="M4 41.219a2 2 0 1 1-4 0V10.222C0 4.723 4.232.22 9.521.22H57.48c5.29 0 9.521 4.5 9.521 10.005V41.22a2 2 0 1 1-4 0V10.224c0-3.349-2.498-6.005-5.521-6.005H9.52C6.5 4.219 4 6.879 4 10.222V41.22z"/></g></svg>