<svg width="69" height="72" viewBox="0 0 69 72" xmlns="http://www.w3.org/2000/svg"><title>Group 18</title><path d="M18.316 14.405c.723 2.763 1.933 4.982 3.953 6.482.925.686 2.423 1.65 4.263 1.35 4.285-.697 6.314-3.828 7.321-7.682 1.59-6.09-1.347-12.483-5.529-14.164-.746-.3-1.59-.402-2.656-.39l-.865.12c-.68.194-1.328.423-1.884.75-2.75 1.622-4.096 4.553-4.82 8.163-.157.788-.232 1.939-.092 2.79.155.946.09 1.744.309 2.58zm26.874 8.493c2.62.524 4.702-.837 6.054-1.89 2.282-1.78 3.819-4.78 4.48-8.103.873-4.398-2.343-8.609-4.789-10.143-.915-.574-1.908-1.162-3.428-1.14l-.803.09-1.514.57c-2.809 1.577-5.148 4.379-6.209 7.622-.242.742-.312 1.526-.463 2.4-.192 1.12-.07 2.702.124 3.662.807 4.017 2.457 6.113 6.548 6.932zM9.975 38.022c4.11-.673 6.42-2.49 7.568-6.002.585-1.79.968-5.738.371-7.892-1.008-3.639-4.391-7.72-9.174-7.653l-1.02.12a6.07 6.07 0 0 0-1.73.63C3.212 18.81 1.852 21.83 1.08 25.359c-1.107 5.048 1.297 9.65 4.324 11.583 1.01.645 2.673 1.392 4.572 1.08zm58.66-9.093c-1.294-4.17-3.832-7.124-9.514-7.052l-1.05.12-1.421.39c-2.138.837-3.475 2.624-4.202 4.832-.378 1.15-.425 2.41-.648 3.751v3.27c.207 1.274.123 2.361.463 3.422 1.049 3.264 2.944 4.445 6.703 5.101 1.185.207 2.817.19 3.924-.09 3.43-.866 4.979-3.087 5.776-6.511.226-.968.066-1.946.247-3.031.222-1.325.047-3.157-.278-4.202zM57.391 48.465c-1.725-1.338-3.22-2.95-4.85-4.382-1.105-.972-2.278-2.051-3.212-3.18-1.248-1.508-2.677-2.91-3.8-4.531-1.203-1.738-2.434-3.53-4.17-4.742-2.008-1.403-4.043-2.457-7.598-2.4-.71.271-1.57.188-2.255.39-1.983.583-3.508 1.565-4.943 2.67-1.5 1.155-2.353 2.898-3.46 4.441-.928 1.296-2.12 2.364-3.12 3.571l-1.39 1.411c-1.453 1.136-2.714 2.541-4.17 3.66-3.276 2.523-5.574 4.235-7.722 7.923-2.985 5.125-.276 12.78 3.182 15.484 1.185.927 2.628 1.717 4.324 2.13.831.204 1.776.122 2.719.27h1.483c.704.114 1.725.077 2.409-.029l1.483-.06c1.46-.237 2.909-.207 4.293-.48 1.589-.313 3.139-.571 4.788-.87l2.008-.12 1.946-.03c1.475.237 2.908.205 4.263.48l4.108 1.08 3.027.54c4.067.77 8.921.034 11.492-1.47a10.154 10.154 0 0 0 3.15-2.851c2.054-2.867 3.314-8.806 1.514-12.843-1.22-2.736-3.264-4.33-5.499-6.062zM32.185 65.419h-6.178c-1.44 0-3.893.223-5.097-.09-3.64-.946-5.641-3.268-6.425-7.022-.193-.924-.304-2.243-.123-3.3.126-.74.213-1.332.463-1.921 1.205-2.847 3.507-4.969 7.043-5.552l5.59-.03.093-.03.062-6.512.155-.09 4.43.06-.013 24.487zm19.183 0h-6.21c-3.55 0-6.806.35-8.617-1.38-1.704-1.627-1.575-3.675-1.575-6.932.01-3.04 0-9.183 0-9.183h4.788v9.633s-.124 2.386.34 3.031c.666.928 2.3.75 3.922.75l2.626-.03V47.924h4.726V65.42zM19.397 54.466c-.988 3.086.337 6 2.842 6.752.646.194 1.59.12 2.41.12 1.824-.02 2.717 0 2.717 0v-9.692l-4.54-.03c-.944.155-2.85 1.04-3.43 2.85z" fill="#2F75FF" fill-rule="evenodd"/></svg>