<svg width="72" height="70" viewBox="0 0 72 70" xmlns="http://www.w3.org/2000/svg"><title>Group 8 Copy</title><g fill="none" fill-rule="evenodd"><path d="M61.893 57.125c.207 1.645.61 3.467 1.377 4.898 1.856 3.461 7.976 6.966 7.976 6.966s-5.205 2.055-12.863-.003c-3.534-.95-5.595-2.281-6.79-3.44a33.63 33.63 0 0 1-15.8 3.916c-18.638 0-33.748-15.092-33.748-33.71a33.54 33.54 0 0 1 3.448-14.86A11.228 11.228 0 0 1 0 11.237C0 5.03 5.037 0 11.25 0c4.109 0 7.703 2.2 9.666 5.487a33.642 33.642 0 0 1 14.877-3.444c4.952 0 9.655 1.065 13.892 2.98A11.242 11.242 0 0 1 59.06 0c6.213 0 11.25 5.03 11.25 11.237 0 3.692-1.784 6.97-4.538 9.018 2.41 4.64 3.77 9.91 3.77 15.498a33.547 33.547 0 0 1-7.648 21.372z" fill="#71A3E8"/><rect fill="#FEFEFE" x="20.282" y="21.304" width="5.538" height="27.833" rx="2.769"/><rect fill="#FEFEFE" x="34.479" y="21.304" width="5.538" height="27.833" rx="2.769"/><rect fill="#FEFEFE" x="45.634" y="21.304" width="5.538" height="19.362" rx="2.769"/><rect fill="#FEFEFE" x="45.634" y="43.623" width="5.538" height="5.532" rx="2.766"/><rect fill="#FEFEFE" transform="rotate(-90 30.605 35.234)" x="27.835" y="26.936" width="5.538" height="16.596" rx="2.769"/></g></svg>