<svg width="80" height="78" viewBox="0 0 80 78" xmlns="http://www.w3.org/2000/svg"><title>Group 44</title><g transform="rotate(23 34.085 43.915)" fill="#FFF" fill-rule="evenodd"><path d="M66.202 66.366a2 2 0 0 1-2.82-2.836A35.876 35.876 0 0 0 74 38C74 18.118 57.882 2 38 2S2 18.118 2 38s16.118 36 36 36a2 2 0 1 1 0 4C15.909 78-2 60.091-2 38S15.909-2 38-2s40 17.909 40 40a39.875 39.875 0 0 1-11.798 28.366z" fill-rule="nonzero"/><path d="M57.721 57.876a2 2 0 1 1-2.817-2.84A23.915 23.915 0 0 0 62 38c0-13.255-10.745-24-24-24S14 24.745 14 38s10.745 24 24 24a2 2 0 1 1 0 4c-15.464 0-28-12.536-28-28s12.536-28 28-28 28 12.536 28 28a27.914 27.914 0 0 1-8.279 19.876z" fill-rule="nonzero"/><path d="M49.244 49.383a2 2 0 0 1-2.811-2.846A11.955 11.955 0 0 0 50 38c0-6.627-5.373-12-12-12s-12 5.373-12 12 5.373 12 12 12a2 2 0 1 1 0 4c-8.837 0-16-7.163-16-16s7.163-16 16-16 16 7.163 16 16c0 4.334-1.734 8.397-4.756 11.383z" fill-rule="nonzero"/><circle cx="38" cy="38" r="5"/></g></svg>